<svg width="491" height="490" viewBox="0 0 491 490" fill="none" xmlns="http://www.w3.org/2000/svg">
<path d="M227.033 6.95117L266.379 6.95117L305.1 185.681L246.315 246.312L187.531 185.681L227.033 6.95117Z" fill="#E94D35"/>
<path d="M227.033 485.672H266.379L305.1 306.942L246.315 246.312L187.531 306.942L227.033 485.672Z" fill="#E94D35"/>
<path d="M6.95313 265.594L6.95313 226.248L185.683 187.528L246.314 246.312L185.683 305.096L6.95313 265.594Z" fill="#E94D35"/>
<path d="M485.68 265.594V226.248L306.95 187.528L246.319 246.312L306.95 305.096L485.68 265.594Z" fill="#E94D35"/>
<path d="M90.6693 429.171L62.8475 401.349L161.849 247.589L246.288 246.283L244.983 330.722L90.6693 429.171Z" fill="#E94D35"/>
<path d="M429.177 90.6644L401.355 62.8426L247.595 161.845L246.289 246.284L330.728 244.978L429.177 90.6644Z" fill="#E94D35"/>
<path d="M63.401 90.6646L91.2228 62.8428L244.983 161.845L246.289 246.284L161.85 244.978L63.401 90.6646Z" fill="#E94D35"/>
<path d="M401.901 429.171L429.723 401.35L330.721 247.589L246.282 246.284L247.588 330.723L401.901 429.171Z" fill="#E94D35"/>
<path d="M32.6097 355.554L17.5527 319.203L167.86 215.033L246.371 246.14L212.852 323.652L32.6097 355.554Z" fill="#E94D35"/>
<path d="M474.891 172.355L459.834 136.004L279.891 168.628L246.372 246.14L324.883 277.247L474.891 172.355Z" fill="#E94D35"/>
<path d="M136.722 32.6017L173.073 17.5446L277.242 167.852L246.135 246.363L168.624 212.843L136.722 32.6017Z" fill="#E94D35"/>
<path d="M319.925 474.882L356.276 459.825L323.652 279.883L246.14 246.363L215.033 324.874L319.925 474.882Z" fill="#E94D35"/>
<path d="M172.427 472.155L136.076 457.098L168.7 277.155L246.212 243.636L277.319 322.147L172.427 472.155Z" fill="#E94D35"/>
<path d="M355.622 29.8746L319.271 14.8176L215.101 165.125L246.208 243.636L323.72 210.116L355.622 29.8746Z" fill="#E94D35"/>
<path d="M15.1168 172.395L30.1739 136.044L210.116 168.668L243.636 246.18L165.125 277.287L15.1168 172.395Z" fill="#E94D35"/>
<path d="M457.39 355.594L472.447 319.243L322.14 215.073L243.629 246.18L277.148 323.692L457.39 355.594Z" fill="#E94D35"/>
</svg>
