<svg width="486" height="486" viewBox="0 0 486 486" fill="none" xmlns="http://www.w3.org/2000/svg">
<circle cx="243" cy="243" r="243" fill="#E94D35"/>
<path d="M233.313 114.745H254.51L275.371 211.035L243.701 243.7L212.031 211.035L233.313 114.745Z" fill="white"/>
<path d="M233.313 372.654H254.51L275.371 276.364L243.701 243.7L212.031 276.364L233.313 372.654Z" fill="white"/>
<path d="M114.742 254.088V232.89L211.032 212.03L243.697 243.7L211.032 275.369L114.742 254.088Z" fill="white"/>
<path d="M372.648 254.088V232.89L276.358 212.03L243.694 243.7L276.358 275.369L372.648 254.088Z" fill="white"/>
<path d="M159.842 342.215L144.853 327.226L198.19 244.388L243.681 243.684L242.978 289.176L159.842 342.215Z" fill="white"/>
<path d="M342.209 159.845L327.22 144.856L244.383 198.193L243.679 243.684L289.17 242.981L342.209 159.845Z" fill="white"/>
<path d="M145.15 159.845L160.139 144.856L242.977 198.193L243.68 243.685L198.189 242.981L145.15 159.845Z" fill="white"/>
<path d="M327.509 342.215L342.498 327.226L289.161 244.388L243.67 243.684L244.374 289.176L327.509 342.215Z" fill="white"/>
<path d="M128.567 302.553L120.455 282.969L201.432 226.848L243.73 243.607L225.671 285.366L128.567 302.553Z" fill="white"/>
<path d="M366.848 203.856L358.736 184.272L261.793 201.848L243.734 243.607L286.032 260.366L366.848 203.856Z" fill="white"/>
<path d="M184.662 128.564L204.246 120.452L260.367 201.43L243.608 243.727L201.849 225.669L184.662 128.564Z" fill="white"/>
<path d="M283.357 366.841L302.941 358.729L285.365 261.786L243.606 243.727L226.847 286.025L283.357 366.841Z" fill="white"/>
<path d="M203.885 365.372L184.301 357.26L201.877 260.317L243.637 242.258L260.396 284.556L203.885 365.372Z" fill="white"/>
<path d="M302.573 127.095L282.989 118.983L226.868 199.96L243.627 242.258L285.386 224.199L302.573 127.095Z" fill="white"/>
<path d="M119.144 203.877L127.256 184.293L224.199 201.87L242.258 243.629L199.96 260.388L119.144 203.877Z" fill="white"/>
<path d="M357.418 302.575L365.53 282.991L284.552 226.87L242.254 243.629L260.313 285.388L357.418 302.575Z" fill="white"/>
</svg>
